<?xml version="1.0" encoding="utf-8"?>
<svg id="master-artboard" viewBox="0 0 976.197509765625 976.3692626953125" version="1.1" xmlns="http://www.w3.org/2000/svg" x="0px" y="0px" style="enable-background:new 0 0 1400 980;" width="976.197509765625px" height="976.3692626953125px"><rect id="ee-background" x="0" y="0" width="976.197509765625" height="976.3692626953125" style="fill: white; fill-opacity: 0; pointer-events: none;"/><defs><path id="a" d="M0 0h192v192H0z"/></defs><g transform="matrix(1.9600000381469727, 0, 0, 1.9600000381469727, -3.87969970703125, -4.093017578125)"><g>
	<path fill="#4D8CF5" d="M64.8,417.8c97.3,105.3,222.8,79.4,222.8,79.4L7.2,206C7.2,206-22.6,323.1,64.8,417.8z"/>
	<path fill="#4878D9" d="M6.7,209.8c0,0,49.8-207.5,248.5-207.5C361,3.4,474.5,89.9,496.9,210.1c17.4,114.7-37.3,250.7-209.3,287.1&#10;&#9;&#9;L6.7,209.8z"/>
	<path fill="#84B0F8" d="M145.8,25.9l-18.7,162.9L9.5,188.9C42.7,65.9,145.8,25.9,145.8,25.9z"/>
	<path fill="#4759B8" d="M252.7,1.3c-0.2,0.7-0.4,188.8-0.4,188.8l-125.1-1.3l18.7-163.1C145.8,25.7,192.8,1.3,252.7,1.3z"/>
	<path fill="#4150A9" d="M127.1,188.8l123.8,1.2c0,0-3.5,61.1-62.1,60.5C130.2,249.9,127.1,188.8,127.1,188.8z"/>
	<path fill="#4354B6" d="M356.8,26.2l18.7,162.9l117.6,0.2C459.9,66.2,356.8,26.2,356.8,26.2z"/>
	<path fill="#7FADF7" d="M251.8,2.5c0.2,0.7-0.9,187.5-0.9,187.5l125.1-1L358.6,26.8C358.6,26.8,311.6,2.5,251.8,2.5z"/>
	<path fill="#78A1E4" d="M376,189l-125.1,1c0,0,5.5,61.8,64.1,61.2C373.6,250.6,376,189,376,189z"/>
	<path fill="#4150A9" d="M496.9,210.1c-6,18.4-17.8,40.5-59.3,41.5c-59-1.5-61.7-62.5-61.7-62.5l117.1,0.1"/>
	<path fill="#7DA5E5" d="M6.3,210.1c6,18.4,17.8,40.5,59.3,41.5c59-1.5,61.5-62.8,61.5-62.8L9.5,188.9"/>
</g></g><path fill="#EEE" d="M138 134v8.51h11.84c-.95 5.06-5.37 8.74-11.84 8.74-7.18 0-13-6.07-13-13.25s5.82-13.25 13-13.25c3.23 0 6.13 1.11 8.41 3.29l6.31-6.31c-3.81-3.55-8.79-5.73-14.72-5.73-12.15 0-22 9.85-22 22s9.85 22 22 22c12.71 0 21.12-8.93 21.12-21.5 0-1.56-.14-3.06-.4-4.5H138z" transform="matrix(6.950459003448487, 0, 0, 6.950459003448487, -329.2292175292969, -280.3341064453125)"/></svg>