<svg xmlns="http://www.w3.org/2000/svg" fill="none" viewBox="0 0 24 24">
  <g clip-path="url(#a)">
    <path fill="#CA2127" d="M23.65 11.97a11.69 11.69 0 1 1-23.38 0 11.69 11.69 0 0 1 23.38 0Z"/>
    <path fill="#fff" d="M10.98 4.2c-3.3.35-6.57 2.88-6.7 6.5-.1 2.22.83 3.88 3.05 4.35.25-1.05.3-1.62.3-1.62s-.98-.93-1.08-1.52c-.81-4.78 5.78-8.04 9.24-4.7 2.39 2.31.82 9.42-3.04 8.68-3.69-.7 1.81-6.36-1.14-7.48-2.39-.9-3.66 2.77-2.53 4.59-.67 3.13-2.1 6.09-1.52 10.01 1.89-1.3 2.52-3.79 3.04-6.39.95.55 1.45 1.12 2.66 1.2 4.45.33 6.94-4.23 6.33-8.44-.54-3.73-4.45-5.63-8.61-5.19Z"/>
  </g>
  <defs>
    <clipPath id="a">
      <path fill="#fff" d="M0 0h24v24H0z"/>
    </clipPath>
  </defs>
</svg>
