<svg width="512" height="512" xmlns="http://www.w3.org/2000/svg">

 <g>
  <title>background</title>
  <rect fill="none" id="canvas_background" height="402" width="582" y="-1" x="-1"/>
 </g>
 <g>
  <title>Layer 1</title>
  <rect id="svg_1" fill="#e60023" rx="15%" height="512" width="512"/>
  <path id="svg_2" fill="#fff" d="m265,65c-104,0 -157,75 -157,138c0,37 14,71 45,83c5,2 10,0 12,-5l3,-18c2,-6 1,-7 -2,-12c-9,-11 -15,-24 -15,-43c0,-56 41,-106 108,-106c60,0 92,37 92,85c0,64 -28,116 -70,116c-23,0 -40,-18 -34,-42c6,-27 19,-57 19,-77c0,-18 -9,-34 -30,-34c-24,0 -42,25 -42,58c0,20 7,34 7,34l-29,120a249,249 0 0 0 2,86l3,-1c2,-3 31,-37 40,-72l16,-61c7,15 29,28 53,28c71,0 119,-64 119,-151c0,-66 -56,-126 -140,-126z"/>
 </g>
</svg>