<?xml version="1.0" encoding="utf-8"?>
<svg height="2500" viewBox="0 0 250 250" width="2500" xmlns="http://www.w3.org/2000/svg">
  <g clip-rule="evenodd" fill-rule="evenodd">
    <path d="M25 0h200c13.808 0 25 11.192 25 25v200c0 13.808-11.192 25-25 25H25c-13.808 0-25-11.192-25-25V25C0 11.192 11.192 0 25 0z" fill="#010101"/>
    <path d="M 161.671 101.663 C 172.615 109.482 186.023 114.083 200.503 114.083 L 200.503 86.232 C 197.762 86.233 195.029 85.947 192.348 85.379 L 192.348 107.302 C 177.869 107.302 164.463 102.701 153.516 94.882 L 153.516 151.717 C 153.516 180.149 130.456 203.196 102.011 203.196 C 91.398 203.196 81.533 199.989 73.338 194.489 C 82.691 204.047 95.734 209.977 110.164 209.977 C 138.611 209.977 161.672 186.93 161.672 158.497 L 161.672 101.663 Z M 171.731 73.565 C 166.138 67.458 162.466 59.565 161.671 50.839 L 161.671 47.257 L 153.943 47.257 C 155.888 58.347 162.523 67.822 171.731 73.565 Z M 91.329 172.672 C 88.205 168.576 86.516 163.566 86.523 158.416 C 86.523 145.412 97.071 134.869 110.084 134.869 C 112.509 134.867 114.92 135.239 117.231 135.972 L 117.231 107.499 C 114.53 107.129 111.805 106.972 109.079 107.03 L 109.079 129.192 C 106.767 128.459 104.355 128.087 101.929 128.089 C 88.916 128.089 78.369 138.632 78.369 151.637 C 78.369 160.832 83.641 168.794 91.329 172.672 Z" fill="#ee1d52"/>
    <path d="M 153.516 94.882 C 164.463 102.701 177.869 107.302 192.348 107.302 L 192.348 85.379 C 184.266 83.659 177.111 79.437 171.731 73.565 C 162.523 67.822 155.888 58.347 153.943 47.257 L 133.644 47.257 L 133.644 158.496 C 133.598 171.464 123.068 181.964 110.083 181.964 C 102.431 181.964 95.633 178.319 91.328 172.672 C 83.64 168.794 78.368 160.832 78.368 151.637 C 78.368 138.632 88.915 128.089 101.928 128.089 C 104.421 128.089 106.824 128.477 109.078 129.192 L 109.078 107.03 C 81.133 107.607 58.658 130.429 58.658 158.497 C 58.658 172.508 64.255 185.21 73.338 194.49 C 81.533 199.99 91.398 203.197 102.011 203.197 C 130.456 203.197 153.516 180.149 153.516 151.718 Z" fill="#fff"/>
    <path d="M 192.348 85.379 L 192.348 79.451 C 185.06 79.461 177.915 77.421 171.731 73.564 C 177.205 79.553 184.413 83.684 192.348 85.379 Z M 153.943 47.257 C 153.757 46.197 153.615 45.13 153.516 44.059 L 153.516 40.477 L 125.488 40.477 L 125.488 151.717 C 125.443 164.684 114.914 175.184 101.928 175.184 C 98.115 175.184 94.516 174.28 91.328 172.672 C 95.633 178.319 102.431 181.964 110.083 181.964 C 123.067 181.964 133.598 171.464 133.644 158.496 L 133.644 47.257 Z M 109.079 107.03 L 109.079 100.719 C 106.737 100.398 104.376 100.238 102.012 100.24 C 73.564 100.24 50.504 123.288 50.504 151.717 C 50.504 169.541 59.567 185.249 73.339 194.489 C 64.256 185.209 58.659 172.507 58.659 158.496 C 58.659 130.429 81.133 107.607 109.079 107.03 Z" fill="#69c9d0"/>
  </g>
</svg>