<svg width="431.00000000000006" height="431.00000000000006" xmlns="http://www.w3.org/2000/svg" version="1.1" xml:space="preserve">
 <g>
  <title>Layer 1</title>
  <path d="m56.2,-0.2l318.5,0c31.2,0 56.4,25.3 56.4,56.4l0,318.5c0,31.2 -25.3,56.4 -56.4,56.4l-318.5,0c-31.2,0 -56.4,-25.3 -56.4,-56.4l0,-318.5c0,-31.1 25.3,-56.4 56.4,-56.4z" id="svg_1"/>
  <g stroke="null">
   <path stroke="null" fill="white" d="m237.3759,197.5067l85.60176,-99.50512l-20.28488,0l-74.328,86.3989l-59.36555,-86.3989l-68.47114,0l89.77236,130.65044l-89.77236,104.3464l20.28603,0l78.49228,-91.24017l62.69437,91.24017l68.47114,0l-93.10099,-135.49171l0.00498,0zm-27.78449,32.29638l-9.09581,-13.00984l-72.37213,-103.52063l31.15815,0l58.40515,83.54445l9.09581,13.00984l75.91978,108.59499l-31.15815,0l-61.9528,-88.61383l0,-0.00498z"/>
  </g>
 </g>

</svg>